<mxfile host="app.diagrams.net" modified="2023-09-20T04:33:11.452Z" agent="Mozilla/5.0 (Macintosh; Intel Mac OS X 10_15_7) AppleWebKit/537.36 (KHTML, like Gecko) Chrome/116.0.0.0 Safari/537.36" etag="sY2PsQEBNrctmoIHa8Ui" version="21.7.5" type="github">
  <diagram name="第 1 页" id="3lNk9idGNjKWv3xJSRU5">
    <mxGraphModel dx="2518" dy="976" grid="1" gridSize="10" guides="1" tooltips="1" connect="1" arrows="1" fold="1" page="1" pageScale="1" pageWidth="827" pageHeight="1169" math="0" shadow="0">
      <root>
        <mxCell id="0" />
        <mxCell id="1" parent="0" />
        <mxCell id="eKz8Gd7EVUiHGcIxb8vz-29" value="" style="rounded=0;whiteSpace=wrap;html=1;fillColor=none;dashed=1;strokeWidth=4;strokeColor=#FF0000;fontSize=20;" vertex="1" parent="1">
          <mxGeometry x="594" y="10" width="270" height="440" as="geometry" />
        </mxCell>
        <mxCell id="eKz8Gd7EVUiHGcIxb8vz-16" style="edgeStyle=orthogonalEdgeStyle;rounded=0;orthogonalLoop=1;jettySize=auto;html=1;entryX=0;entryY=0.5;entryDx=0;entryDy=0;fontSize=20;" edge="1" parent="1" source="eKz8Gd7EVUiHGcIxb8vz-1" target="eKz8Gd7EVUiHGcIxb8vz-2">
          <mxGeometry relative="1" as="geometry" />
        </mxCell>
        <mxCell id="eKz8Gd7EVUiHGcIxb8vz-28" style="edgeStyle=orthogonalEdgeStyle;rounded=0;orthogonalLoop=1;jettySize=auto;html=1;entryX=0.583;entryY=0;entryDx=0;entryDy=0;entryPerimeter=0;dashed=1;fontSize=20;" edge="1" parent="1" source="eKz8Gd7EVUiHGcIxb8vz-1" target="eKz8Gd7EVUiHGcIxb8vz-11">
          <mxGeometry relative="1" as="geometry" />
        </mxCell>
        <mxCell id="eKz8Gd7EVUiHGcIxb8vz-1" value="&lt;font style=&quot;font-size: 20px;&quot;&gt;当前帧开始&lt;/font&gt;" style="rounded=1;whiteSpace=wrap;html=1;fillColor=#f5f5f5;fontColor=#333333;strokeColor=#666666;fontSize=20;" vertex="1" parent="1">
          <mxGeometry x="-90" y="120" width="120" height="60" as="geometry" />
        </mxCell>
        <mxCell id="eKz8Gd7EVUiHGcIxb8vz-17" style="edgeStyle=orthogonalEdgeStyle;rounded=0;orthogonalLoop=1;jettySize=auto;html=1;fontSize=20;" edge="1" parent="1" source="eKz8Gd7EVUiHGcIxb8vz-2" target="eKz8Gd7EVUiHGcIxb8vz-3">
          <mxGeometry relative="1" as="geometry" />
        </mxCell>
        <mxCell id="eKz8Gd7EVUiHGcIxb8vz-2" value="&lt;font style=&quot;font-size: 20px;&quot;&gt;等待当前帧动画结束&lt;/font&gt;" style="rounded=1;whiteSpace=wrap;html=1;fillColor=#dae8fc;strokeColor=#6c8ebf;fontSize=20;" vertex="1" parent="1">
          <mxGeometry x="180" y="120" width="220" height="60" as="geometry" />
        </mxCell>
        <mxCell id="eKz8Gd7EVUiHGcIxb8vz-18" style="edgeStyle=orthogonalEdgeStyle;rounded=0;orthogonalLoop=1;jettySize=auto;html=1;entryX=0.5;entryY=0;entryDx=0;entryDy=0;fontSize=20;" edge="1" parent="1" source="eKz8Gd7EVUiHGcIxb8vz-3" target="eKz8Gd7EVUiHGcIxb8vz-6">
          <mxGeometry relative="1" as="geometry" />
        </mxCell>
        <mxCell id="eKz8Gd7EVUiHGcIxb8vz-3" value="&lt;font style=&quot;font-size: 20px;&quot;&gt;计算更新次数&lt;/font&gt;" style="rounded=1;whiteSpace=wrap;html=1;fillColor=#dae8fc;strokeColor=#6c8ebf;fontSize=20;" vertex="1" parent="1">
          <mxGeometry x="180" y="230" width="220" height="60" as="geometry" />
        </mxCell>
        <mxCell id="eKz8Gd7EVUiHGcIxb8vz-19" style="edgeStyle=orthogonalEdgeStyle;rounded=0;orthogonalLoop=1;jettySize=auto;html=1;entryX=0;entryY=0.5;entryDx=0;entryDy=0;fontSize=20;" edge="1" parent="1" source="eKz8Gd7EVUiHGcIxb8vz-6" target="eKz8Gd7EVUiHGcIxb8vz-12">
          <mxGeometry relative="1" as="geometry" />
        </mxCell>
        <mxCell id="eKz8Gd7EVUiHGcIxb8vz-23" style="edgeStyle=orthogonalEdgeStyle;rounded=0;orthogonalLoop=1;jettySize=auto;html=1;fontSize=20;" edge="1" parent="1" source="eKz8Gd7EVUiHGcIxb8vz-6" target="eKz8Gd7EVUiHGcIxb8vz-7">
          <mxGeometry relative="1" as="geometry" />
        </mxCell>
        <mxCell id="eKz8Gd7EVUiHGcIxb8vz-6" value="&lt;font style=&quot;font-size: 20px;&quot;&gt;是否需要更新&lt;/font&gt;" style="rhombus;whiteSpace=wrap;html=1;fillColor=#dae8fc;strokeColor=#6c8ebf;fontSize=20;" vertex="1" parent="1">
          <mxGeometry x="195" y="340" width="190" height="100" as="geometry" />
        </mxCell>
        <mxCell id="eKz8Gd7EVUiHGcIxb8vz-25" style="edgeStyle=orthogonalEdgeStyle;rounded=0;orthogonalLoop=1;jettySize=auto;html=1;fontSize=20;" edge="1" parent="1" source="eKz8Gd7EVUiHGcIxb8vz-7" target="eKz8Gd7EVUiHGcIxb8vz-8">
          <mxGeometry relative="1" as="geometry" />
        </mxCell>
        <mxCell id="eKz8Gd7EVUiHGcIxb8vz-7" value="&lt;font style=&quot;font-size: 20px;&quot;&gt;维持节点长度&lt;/font&gt;" style="rounded=1;whiteSpace=wrap;html=1;fillColor=#dae8fc;strokeColor=#6c8ebf;fontSize=20;" vertex="1" parent="1">
          <mxGeometry x="180" y="530" width="220" height="60" as="geometry" />
        </mxCell>
        <mxCell id="eKz8Gd7EVUiHGcIxb8vz-26" style="edgeStyle=orthogonalEdgeStyle;rounded=0;orthogonalLoop=1;jettySize=auto;html=1;entryX=0.5;entryY=0;entryDx=0;entryDy=0;fontSize=20;" edge="1" parent="1" source="eKz8Gd7EVUiHGcIxb8vz-8" target="eKz8Gd7EVUiHGcIxb8vz-9">
          <mxGeometry relative="1" as="geometry" />
        </mxCell>
        <mxCell id="eKz8Gd7EVUiHGcIxb8vz-8" value="&lt;font style=&quot;font-size: 20px;&quot;&gt;修正各节点的旋转&lt;/font&gt;" style="rounded=1;whiteSpace=wrap;html=1;fillColor=#dae8fc;strokeColor=#6c8ebf;fontSize=20;" vertex="1" parent="1">
          <mxGeometry x="180" y="635" width="220" height="60" as="geometry" />
        </mxCell>
        <mxCell id="eKz8Gd7EVUiHGcIxb8vz-27" style="edgeStyle=orthogonalEdgeStyle;rounded=0;orthogonalLoop=1;jettySize=auto;html=1;fontSize=20;" edge="1" parent="1" source="eKz8Gd7EVUiHGcIxb8vz-9" target="eKz8Gd7EVUiHGcIxb8vz-11">
          <mxGeometry relative="1" as="geometry" />
        </mxCell>
        <mxCell id="eKz8Gd7EVUiHGcIxb8vz-9" value="&lt;font style=&quot;font-size: 20px;&quot;&gt;将虚拟节点的变化&lt;br style=&quot;font-size: 20px;&quot;&gt;同步到节点&lt;/font&gt;" style="rounded=1;whiteSpace=wrap;html=1;fillColor=#dae8fc;strokeColor=#6c8ebf;fontSize=20;" vertex="1" parent="1">
          <mxGeometry x="180" y="750" width="220" height="60" as="geometry" />
        </mxCell>
        <mxCell id="eKz8Gd7EVUiHGcIxb8vz-11" value="&lt;font style=&quot;font-size: 20px;&quot;&gt;当前帧结束&lt;/font&gt;" style="rounded=1;whiteSpace=wrap;html=1;fillColor=#f5f5f5;fontColor=#333333;strokeColor=#666666;fontSize=20;" vertex="1" parent="1">
          <mxGeometry x="-100" y="750" width="120" height="60" as="geometry" />
        </mxCell>
        <mxCell id="eKz8Gd7EVUiHGcIxb8vz-20" style="edgeStyle=orthogonalEdgeStyle;rounded=0;orthogonalLoop=1;jettySize=auto;html=1;fontSize=20;" edge="1" parent="1" source="eKz8Gd7EVUiHGcIxb8vz-12" target="eKz8Gd7EVUiHGcIxb8vz-13">
          <mxGeometry relative="1" as="geometry" />
        </mxCell>
        <mxCell id="eKz8Gd7EVUiHGcIxb8vz-12" value="&lt;span style=&quot;font-size: 20px;&quot;&gt;计算惯性运动过程&lt;/span&gt;" style="rounded=1;whiteSpace=wrap;html=1;fillColor=#f8cecc;strokeColor=#b85450;fontSize=20;" vertex="1" parent="1">
          <mxGeometry x="620" y="40" width="220" height="60" as="geometry" />
        </mxCell>
        <mxCell id="eKz8Gd7EVUiHGcIxb8vz-21" style="edgeStyle=orthogonalEdgeStyle;rounded=0;orthogonalLoop=1;jettySize=auto;html=1;fontSize=20;" edge="1" parent="1" source="eKz8Gd7EVUiHGcIxb8vz-13" target="eKz8Gd7EVUiHGcIxb8vz-14">
          <mxGeometry relative="1" as="geometry" />
        </mxCell>
        <mxCell id="eKz8Gd7EVUiHGcIxb8vz-13" value="&lt;span style=&quot;font-size: 20px;&quot;&gt;计算受力运动过程&lt;/span&gt;" style="rounded=1;whiteSpace=wrap;html=1;fillColor=#f8cecc;strokeColor=#b85450;fontSize=20;" vertex="1" parent="1">
          <mxGeometry x="620" y="130" width="220" height="60" as="geometry" />
        </mxCell>
        <mxCell id="eKz8Gd7EVUiHGcIxb8vz-22" style="edgeStyle=orthogonalEdgeStyle;rounded=0;orthogonalLoop=1;jettySize=auto;html=1;fontSize=20;" edge="1" parent="1" source="eKz8Gd7EVUiHGcIxb8vz-14" target="eKz8Gd7EVUiHGcIxb8vz-15">
          <mxGeometry relative="1" as="geometry" />
        </mxCell>
        <mxCell id="eKz8Gd7EVUiHGcIxb8vz-14" value="&lt;font style=&quot;font-size: 20px;&quot;&gt;计算弹性运动过程&lt;/font&gt;" style="rounded=1;whiteSpace=wrap;html=1;fillColor=#f8cecc;strokeColor=#b85450;fontSize=20;" vertex="1" parent="1">
          <mxGeometry x="620" y="240" width="220" height="60" as="geometry" />
        </mxCell>
        <mxCell id="eKz8Gd7EVUiHGcIxb8vz-24" style="edgeStyle=orthogonalEdgeStyle;rounded=0;orthogonalLoop=1;jettySize=auto;html=1;fontSize=20;" edge="1" parent="1" source="eKz8Gd7EVUiHGcIxb8vz-15">
          <mxGeometry relative="1" as="geometry">
            <mxPoint x="290" y="490" as="targetPoint" />
            <Array as="points">
              <mxPoint x="730" y="490" />
            </Array>
          </mxGeometry>
        </mxCell>
        <mxCell id="eKz8Gd7EVUiHGcIxb8vz-15" value="&lt;span style=&quot;font-size: 20px;&quot;&gt;计算刚性运动过程&lt;/span&gt;" style="rounded=1;whiteSpace=wrap;html=1;fillColor=#f8cecc;strokeColor=#b85450;fontSize=20;" vertex="1" parent="1">
          <mxGeometry x="620" y="350" width="220" height="60" as="geometry" />
        </mxCell>
        <mxCell id="eKz8Gd7EVUiHGcIxb8vz-30" value="&lt;font size=&quot;1&quot; color=&quot;#ff0000&quot; style=&quot;&quot;&gt;&lt;b style=&quot;font-size: 28px;&quot;&gt;重点骨骼模拟模拟过程&lt;/b&gt;&lt;/font&gt;" style="text;html=1;strokeColor=none;fillColor=none;align=center;verticalAlign=middle;whiteSpace=wrap;rounded=0;fontSize=25;" vertex="1" parent="1">
          <mxGeometry x="480" y="555" width="320" height="30" as="geometry" />
        </mxCell>
        <mxCell id="eKz8Gd7EVUiHGcIxb8vz-31" value="" style="rounded=0;whiteSpace=wrap;html=1;fillColor=none;dashed=1;strokeWidth=4;strokeColor=#FF0000;fontSize=20;" vertex="1" parent="1">
          <mxGeometry x="150" y="510" width="285" height="210" as="geometry" />
        </mxCell>
      </root>
    </mxGraphModel>
  </diagram>
</mxfile>
